<svg xmlns="http://www.w3.org/2000/svg" viewBox="0 0 120 120" role="img" aria-label="Piloto estelar"><title>Piloto estelar</title><path d="M10 124 C10 99 31 88 60 88 C89 88 110 99 110 124 Z" fill="#E8EAEF"/><path d="M40 91 C46 98 74 98 80 91 C74 88 67 87 60 87 C53 87 46 88 40 91 Z" fill="#FF9F43"/><rect x="40" y="96" width="14" height="8" rx="2" fill="#4A9EFF"/><path d="M51 70 L69 70 L70 92 C64 96 56 96 50 92 Z" fill="#7F4F31"/><ellipse cx="37.5" cy="58" rx="4.5" ry="6" fill="#7F4F31"/><ellipse cx="82.5" cy="58" rx="4.5" ry="6" fill="#7F4F31"/><path d="M38 52 C38 36 47 29 60 29 C73 29 82 36 82 52 L82 60 C82 74 72 82 60 82 C48 82 38 74 38 60 Z" fill="#99623F"/><ellipse cx="51" cy="58" rx="2.6" ry="3.2" fill="#1F1B24"/><ellipse cx="69" cy="58" rx="2.6" ry="3.2" fill="#1F1B24"/><path d="M56.5 70 Q60 72.5 63.5 70" stroke="#1F1B24" stroke-width="1.8" fill="none" stroke-linecap="round" opacity="0.75"/><path d="M37 50 C37 33 48 25 61 25 C74 25 84 33 83 49 C76 42 66 39 56 40 C49 41 42 44 37 50 Z" fill="#4A2F25"/><path d="M32 58 C30 34 44 22 60 22 C76 22 90 34 88 58 L84 58 C82 40 72 32 60 32 C48 32 38 40 36 58 Z" fill="#C9CED8"/><rect x="80" y="52" width="9" height="14" rx="4.5" fill="#FF9F43"/><path d="M84 66 C84 74 78 78 70 78" stroke="#5A616D" stroke-width="2" fill="none" stroke-linecap="round"/><circle cx="69" cy="78" r="2.4" fill="#5A616D"/></svg>
