<svg xmlns="http://www.w3.org/2000/svg" viewBox="0 0 120 120" role="img" aria-label="Albedo"><title>Albedo</title><rect width="120" height="120" fill="#2C1842"/><path d="M60 84 C40 60 14 54 2 70 C14 70 22 76 24 86 C12 84 6 92 6 100 C20 92 36 96 60 96 Z" fill="#0F0C16"/><path d="M60 84 C80 60 106 54 118 70 C106 70 98 76 96 86 C108 84 114 92 114 100 C100 92 84 96 60 96 Z" fill="#0F0C16"/><path d="M30 58 C28 34 46 23 60 23 C74 23 92 34 90 58 L93 112 C82 116 38 116 27 112 Z" fill="#1A1720"/><path d="M10 124 C10 99 30 88 60 88 C90 88 110 99 110 124 Z" fill="#F4F1FA"/><path d="M45 89 L60 110 L75 89 C70 88 65 88 60 88 C55 88 50 88 45 89 Z" fill="#D9A93A"/><path d="M51 72 L69 72 L70 92 C64 96 56 96 50 92 Z" fill="#E9C1A4"/><g transform="rotate(-6 60 84)"><ellipse cx="37.5" cy="59" rx="4.5" ry="6" fill="#E9C1A4"/><ellipse cx="82.5" cy="59" rx="4.5" ry="6" fill="#E9C1A4"/><path d="M38 52 C38 36 47 29 60 29 C73 29 82 36 82 52 L82 60 C82 72 72 83 60 86 C48 83 38 72 38 60 Z" fill="#F8DCC6"/><path d="M37 64 C35 36 46 25 60 25 C74 25 85 36 83 64 C81 51 77 43 70 40 C66 38.5 62.5 39.5 60 42 C57.5 39.5 54 38.5 50 40 C43 43 39 51 37 64 Z" fill="#1A1720"/><path d="M40 40 C30 34 26 40 30 48 C32 44 36 44 38 48 Z" fill="#EEE6D3"/><path d="M80 40 C90 34 94 40 90 48 C88 44 84 44 82 48 Z" fill="#EEE6D3"/><ellipse cx="51" cy="59" rx="3.4" ry="4.3" fill="#E8B23A"/><ellipse cx="51" cy="59.4" rx="1.5" ry="2.365" fill="#1F1B24" opacity="0.55"/><circle cx="52.1" cy="57.28" r="1.1" fill="#FFFFFF"/><ellipse cx="51" cy="59" rx="0.7" ry="3.655" fill="#1F1B24"/><path d="M46.6 55.9 Q51 53.4 55.6 55.6" stroke="#1F1B24" stroke-width="2.2" stroke-linecap="round" fill="none"/><ellipse cx="69" cy="59" rx="3.4" ry="4.3" fill="#E8B23A"/><ellipse cx="69" cy="59.4" rx="1.5" ry="2.365" fill="#1F1B24" opacity="0.55"/><circle cx="67.9" cy="57.28" r="1.1" fill="#FFFFFF"/><ellipse cx="69" cy="59" rx="0.7" ry="3.655" fill="#1F1B24"/><path d="M64.6 55.9 Q69 53.4 73.6 55.6" stroke="#1F1B24" stroke-width="2.2" stroke-linecap="round" fill="none"/><path d="M45 51 Q50 48.5 55 51" stroke="#1A1720" stroke-width="2.4" stroke-linecap="round" fill="none"/><path d="M65 49.5 Q70 47 75 48.5" stroke="#1A1720" stroke-width="2.4" stroke-linecap="round" fill="none"/><path d="M55 74 Q60 75.5 66 71.5" stroke="#1F1B24" stroke-width="1.9" stroke-linecap="round" fill="none"/><ellipse cx="45.5" cy="67" rx="4" ry="2.2" fill="#F26B7A" opacity="0.35"/><ellipse cx="74.5" cy="67" rx="4" ry="2.2" fill="#F26B7A" opacity="0.35"/></g></svg>
