<svg xmlns="http://www.w3.org/2000/svg" viewBox="0 0 120 120" role="img" aria-label="Raphtalia"><title>Raphtalia</title><rect width="120" height="120" fill="#D85E3A"/><circle cx="60" cy="58" r="40" fill="#E57A55"/><path d="M92 10 L100 14 L72 96 L66 92 Z" fill="#2A2A30"/><rect x="88" y="6" width="16" height="4" rx="2" transform="rotate(20 96 8)" fill="#C9A24A"/><path d="M30 58 C28 34 46 23 60 23 C74 23 92 34 90 58 L93 112 C82 116 38 116 27 112 Z" fill="#6B3822"/><path d="M10 124 C10 99 30 88 60 88 C90 88 110 99 110 124 Z" fill="#F4F1EE"/><path d="M45 89 L60 110 L75 89 C70 88 65 88 60 88 C55 88 50 88 45 89 Z" fill="#B3243F"/><path d="M51 72 L69 72 L70 92 C64 96 56 96 50 92 Z" fill="#E9C1A4"/><g transform="rotate(-5 60 84)"><ellipse cx="37.5" cy="59" rx="4.5" ry="6" fill="#E9C1A4"/><ellipse cx="82.5" cy="59" rx="4.5" ry="6" fill="#E9C1A4"/><path d="M38 52 C38 36 47 29 60 29 C73 29 82 36 82 52 L82 60 C82 72 72 83 60 86 C48 83 38 72 38 60 Z" fill="#F8DCC6"/><path d="M38 34 C30 18 44 12 50 24 Z" fill="#6B3822"/><path d="M41 30 C38 22 44 19 47 25 Z" fill="#3E2014"/><path d="M82 34 C90 18 76 12 70 24 Z" fill="#6B3822"/><path d="M79 30 C82 22 76 19 73 25 Z" fill="#3E2014"/><path d="M37 60 C35 35 46 25 60 25 C74 25 85 35 83 60 C81 54 79 51 76 49 L72 53 L69 47 L64 52 L60 46 L56 52 L51 47 L48 53 L44 49 C41 51 39 54 37 60 Z" fill="#6B3822"/><ellipse cx="51" cy="60" rx="3.4" ry="3.0" fill="#C8323A"/><ellipse cx="51" cy="60.4" rx="1.5" ry="1.6500000000000001" fill="#1F1B24" opacity="0.55"/><circle cx="52.1" cy="58.8" r="1.1" fill="#FFFFFF"/><path d="M46.6 56.6 L55.4 58.4" stroke="#1F1B24" stroke-width="2.2" stroke-linecap="round" fill="none"/><ellipse cx="69" cy="60" rx="3.4" ry="3.0" fill="#C8323A"/><ellipse cx="69" cy="60.4" rx="1.5" ry="1.6500000000000001" fill="#1F1B24" opacity="0.55"/><circle cx="67.9" cy="58.8" r="1.1" fill="#FFFFFF"/><path d="M73.4 56.6 L64.6 58.4" stroke="#1F1B24" stroke-width="2.2" stroke-linecap="round" fill="none"/><path d="M45 49 L55 52.5" stroke="#6B3822" stroke-width="2.4" stroke-linecap="round" fill="none"/><path d="M75 49 L65 52.5" stroke="#6B3822" stroke-width="2.4" stroke-linecap="round" fill="none"/><path d="M55 73 Q60 77 65 73" stroke="#1F1B24" stroke-width="1.9" stroke-linecap="round" fill="none"/></g></svg>
